<svg width="1594" height="1155" viewBox="0 0 1594 1155" fill="none" xmlns="http://www.w3.org/2000/svg">
<path d="M860.45 417.782C862.113 645.203 671.518 830.968 434.743 832.7C197.968 834.431 4.67523 651.474 3.01184 424.053C1.34845 196.632 191.944 10.8673 428.719 9.13552C665.494 7.40371 858.787 190.361 860.45 417.782Z" fill="#541B5E"/>
<ellipse cx="1159.32" cy="463.918" rx="428.73" ry="411.793" transform="rotate(-0.419063 1159.32 463.918)" fill="#A301AB"/>
<ellipse cx="534.35" cy="701.383" rx="320.754" ry="308.051" transform="rotate(-0.419063 534.35 701.383)" fill="#D000DA"/>
<ellipse cx="1022.56" cy="727.457" rx="290.055" ry="278.41" transform="rotate(-0.419063 1022.56 727.457)" fill="#F675FF"/>
<ellipse cx="1066.08" cy="731.525" rx="290.055" ry="278.41" transform="rotate(-0.419063 1066.08 731.525)" fill="#F675FF"/>
<ellipse cx="792.948" cy="964.593" rx="191.605" ry="184.195" transform="rotate(-0.419063 792.948 964.593)" fill="#D9D9D9"/>
</svg>
